# xmcd
#
# Track frame offsets:
#	150
#	19747
#	35837
#	51152
#	68140
#	83742
#	93902
#	104310
#	119455
#	133902
#	142665
#
# Disc length: 2171 seconds
#
# Revision: 0
# Processed by: cddbd v1.5PL3 Copyright (c) Steve Scherf et al.
# Submitted via: dBpowerAMP V4.0
#
DISCID=9208790b
DTITLE=Howard Crockett - Sour Mash Whiskey and Red Texas Wine
DYEAR=2001
DGENRE=Country
TTITLE0=My Day In Court (I Hate Dogs)
TTITLE1=Marriage Made In Heaven (Divorce Made In Hell)
TTITLE2=Sour Mash Whiskey And Red Texas Wine
TTITLE3=Ole Slu-Foot
TTITLE4=Some Monday Morning
TTITLE5=Girl Next Door
TTITLE6=Like My Old Man (Before Me)
TTITLE7=Traveling With My Mind
TTITLE8=I Saw The Light
TTITLE9=Matilda (Instrumental)
TTITLE10=Will The Circle Be Unbroken
EXTD=
EXTT0=
EXTT1=
EXTT2=
EXTT3=
EXTT4=
EXTT5=
EXTT6=
EXTT7=
EXTT8=
EXTT9=
EXTT10=
PLAYORDER=
